PathFileType	4	(X/Y/Z)	Patient4_TMGait_0pt7_02_right_26.trc.trc
DataRate	CameraRate	NumFrames	NumMarkers	Units	OrigDataRate	OrigDataStartFrame	OrigNumFrames
85.365853658537	85.365853658537	6	33	mm	85.365853658537	53	       141
Frame#	Time	Sacral			L.Shoulder			Chest			R.Shoulder			Neck			R.ASIS			L.ASIS			R.Thigh.Superior			R.Thigh.Lateral			R.Thigh.Inferior			R.Patella			L.Thigh.Superior			L.Thigh.Lateral			L.Thigh.Inferior			L.Patella			L.Shank.Superior			L.Shank.Lateral			L.Shank.Inferior			R.Shank.Superior			R.Shank.Lateral			R.Shank.Inferior			R.Heel			R.Midfoot.Superior			R.Midfoot.Lateral			R.Toe			L.Heel			L.Midfoot.Lateral			L.Midfoot.Superior			L.Toe			L.Elbow			L.Wrist			R.Elbow			R.Wrist			
		X1	Y1	Z1	X2	Y2	Z2	X3	Y3	Z3	X4	Y4	Z4	X5	Y5	Z5	X6	Y6	Z6	X7	Y7	Z7	X8	Y8	Z8	X9	Y9	Z9	X10	Y10	Z10	X11	Y11	Z11	X12	Y12	Z12	X13	Y13	Z13	X14	Y14	Z14	X15	Y15	Z15	X16	Y16	Z16	X17	Y17	Z17	X18	Y18	Z18	X19	Y19	Z19	X20	Y20	Z20	X21	Y21	Z21	X22	Y22	Z22	X23	Y23	Z23	X24	Y24	Z24	X25	Y25	Z25	X26	Y26	Z26	X27	Y27	Z27	X28	Y28	Z28	X29	Y29	Z29	X30	Y30	Z30	X31	Y31	Z31	X32	Y32	Z32	X33	Y33	Z33	

53	29.639142857143	874.586026892616	1018.773156348353	529.206944747843	1055.078185076806	1423.624536746985	304.478538613243	1180.469272622886	1349.532884029720	448.538387340557	1135.927227279373	1439.297785981425	629.575102891722	1090.110216026661	1489.869570824248	453.050139995891	1110.282081949328	938.893537912825	614.003000620892	1060.495635645920	960.051017829326	345.721346157580	1144.346734753559	738.396648229378	581.544601684055	1065.659222088105	631.794926053242	645.284290032756	1133.631311283277	579.284426272508	557.304492954238	1132.435656654008	489.017049026870	562.083416539338	1157.066511245179	803.100688410252	375.667947928346	1129.567096558337	676.085187203307	291.859118074037	1241.616867387133	624.289953489193	352.094551417641	1266.384441217669	536.361000113918	339.663074967899	1206.678332259234	463.186525700015	331.133142657025	1068.325116915850	405.131970744615	290.573091571601	1078.112246087799	272.480030927737	337.105100508913	1098.253819744517	402.262934035961	571.700978686257	1024.921776899738	301.666188833538	635.465921071817	1057.657377750428	205.607167922611	569.111853058664	914.083738151461	44.780088578771	543.233774489097	1087.458344574420	97.853994265921	575.356034345627	998.768275557597	37.758229193003	614.931691514482	1207.008538794492	40.974288335118	600.475371891845	902.555708597322	185.950563975399	385.667312210619	957.251016503633	145.751138656198	300.425555166926	1062.177964107666	163.627127308429	312.879589954832	1147.244087258707	59.119093503809	278.007174287969	972.747696229697	1070.824208971564	226.489010207048	1067.431035826807	828.759578727847	223.345731687650	1127.769330360996	1100.426045078442	773.891663557792	1327.643442457081	961.845044196868	690.668201313357	
54	29.650857142857	873.478876823195	1019.575474118003	530.730987794653	1053.054922917741	1423.989421178357	305.561563492309	1179.539662876949	1349.632745590524	448.467529685601	1136.764742294571	1439.355310856186	630.037226265549	1089.329285124205	1490.186048860230	454.031155241152	1109.482502840170	938.874315759080	614.003885955299	1058.249013338113	960.641968253535	345.896457128768	1140.912785308419	737.598768202296	581.188671607904	1061.635816162548	631.750186284192	645.812534961639	1128.366922547200	578.471908195650	557.425874490116	1126.109988662568	488.423358320401	562.308971141599	1156.123735214487	806.665935609107	376.228658672591	1131.263492203695	679.251428069472	291.864769555896	1244.049851082038	629.544315247955	352.108511286644	1271.031326102745	542.761002841010	339.267093387311	1214.638191762591	467.786264596068	330.805625613887	1079.471298083261	402.643606407482	290.337904866850	1096.468064569615	270.385029903094	336.648170571738	1091.683018950886	401.883579566066	571.979551940035	1018.052709038527	301.586751558045	635.849913394740	1050.119660262241	205.437660250444	569.287039401785	905.853800811849	44.918707681868	543.325959869191	1079.258849063146	97.801408702124	575.443022762589	990.541517790463	37.763911711839	614.990935311039	1198.756185768023	40.823100298665	600.570413195435	925.875621089771	173.642377307340	385.328394631541	982.710860492703	137.283158981708	299.763682532340	1086.529939010829	161.189115052208	312.186275824882	1177.668238011223	62.120807140555	276.599274585881	967.784432472870	1071.539543863423	229.353823097232	1040.350893064566	821.635979627886	224.822394499851	1139.975711309872	1100.320163034178	772.828701551046	1348.224068740241	980.208821863565	683.999016681229	
55	29.662571428571	872.361994047437	1020.303605784856	531.893979054249	1051.289404430501	1424.277884643802	306.478437523817	1178.684148840749	1349.634726045733	448.360866184144	1137.514848852503	1439.326386844433	630.395028261633	1088.647947072443	1490.425772058761	454.881577115442	1108.552589002412	938.861665012763	614.039374131474	1056.236755069767	961.096644415749	345.957106685279	1137.398153240409	736.809377197161	580.946409360363	1057.370739191880	631.720692291019	646.361830737687	1122.965118040715	577.659427329358	557.688338577155	1119.604722482843	487.884926937581	562.665103372585	1154.993052279354	809.661893884023	376.821203903963	1132.510733946135	681.893182873696	291.944164382376	1245.816243033356	634.053350369525	352.274544706713	1274.837897023272	548.532757893867	339.210948578189	1221.900979632492	471.962965459254	330.769230553939	1090.629355685055	399.799990660525	289.716567334675	1114.617882338278	268.354596333311	336.061425394480	1084.988810408455	401.531697809462	572.325754793477	1011.054863587373	301.531202369633	636.288593151136	1042.519447304434	205.296869463490	569.514289848944	897.622133262464	45.078487771537	543.403413323727	1071.064939657521	97.750549318183	575.534427980365	982.314285851767	37.775688379981	615.046903807085	1190.500033395173	40.667139576071	600.666697277635	949.469297674366	161.646886881530	384.004580446297	1008.607448523775	129.252768485086	298.483947792675	1110.839405010586	159.091128594559	311.437972901731	1207.837585421427	65.769994595838	275.717992379468	962.211485173098	1072.562041896035	231.809097418322	1013.430676870178	817.112655938606	226.420529249537	1152.474835151983	1100.477030554389	771.245791692206	1367.505817040165	999.501608381981	677.045975285683	
56	29.674285714286	871.273879007594	1020.942846865963	532.687504046207	1049.800775159638	1424.496749257839	307.215143038278	1177.905944284911	1349.540202096677	448.224100037624	1138.161846408865	1439.214399801424	630.645695439753	1088.078923119591	1490.591683672656	455.585283472104	1107.501997508161	938.865673330245	614.124971033628	1054.515221073790	961.404304389479	345.920810132997	1133.820900327176	736.034743881381	580.866059975147	1052.856824034438	631.709705378594	646.931499078016	1117.443399112752	576.849561533357	558.116495915657	1112.940117691908	487.405351099604	563.157789411830	1153.728370801917	812.050882597304	377.444364845801	1133.318523228316	683.954474406860	292.110039556687	1246.939323740018	637.724858548667	352.595535659756	1277.811871298319	553.572372313213	339.528957286189	1228.423462601244	475.645471499005	331.059560301998	1101.757334461843	396.657968385716	288.709868867522	1132.389420053924	266.432087372888	335.386335941341	1078.183906323387	401.211392526929	572.741195040620	1003.926463932355	301.506026287238	636.776167825944	1034.862326632925	205.190406402826	569.792095768658	889.388414417172	45.260666807820	543.469598006111	1062.875374043133	97.701965875096	575.627077767788	974.086535018681	37.797795921693	615.099381183855	1182.241582589279	40.511207594629	600.763839998551	973.104098473371	150.114695048378	381.708306140302	1034.715628684867	121.808330094837	296.626663827754	1134.877523358509	157.410594648791	310.685530104387	1237.466877953241	70.117244240414	275.473086373645	955.923894911489	1073.964841710479	233.797286459455	987.170264525729	815.046949516906	228.134351475966	1165.207448854324	1100.939175185954	769.132219694646	1385.380774510741	1019.498097595356	669.893260789572	
57	29.686000000000	870.254215637868	1021.480567755685	533.109136021293	1048.592435030306	1424.655522330844	307.764702735252	1177.202724710754	1349.356546493252	448.061887265067	1138.689578616523	1439.026777318514	630.788317249576	1087.624500637074	1490.689001951892	456.133047946742	1106.348705469806	938.894579981066	614.263638238842	1053.132191473315	961.556076031269	345.797292220483	1130.192317968188	735.278763224516	580.985838551620	1048.090251263982	631.720614922618	647.517808052781	1111.814529232512	576.044194131221	558.727267250612	1106.135498852739	486.985625075268	563.788573276710	1152.390048865668	813.806248663806	378.081301039503	1133.701798549064	685.388733865713	292.360269350473	1247.447503575997	640.477414043874	353.058563663646	1279.965977704347	557.785526333975	340.225356974659	1234.162911864001	478.763655555741	331.680466994131	1112.774737219715	393.257882911667	287.343690969352	1149.606336775705	264.622115929350	334.666075084099	1071.277153081860	400.929055895890	573.225464532391	996.664906878824	301.515631728260	637.300352572638	1027.152893346158	205.123418757535	570.116366546981	881.152860028535	45.464387407414	543.527218795205	1054.688042104067	97.654814835663	575.716248801440	965.857737603068	37.833071405431	615.147602678308	1173.983023255993	40.360578841112	600.860796387722	996.538476699423	139.135020400261	378.521995431014	1060.780822909296	115.023238964304	294.278986789675	1158.409838650759	156.166041987931	309.980838024586	1266.275884847699	75.140242567806	275.938326270961	948.885109214266	1075.809520037508	235.279911112095	961.999072147378	815.180858311536	229.948483415834	1178.090381351213	1101.750594977478	766.490553148791	1401.770239214733	1039.963159352890	662.632769720915	
58	29.697714285714	869.341264751729	1021.904129351728	533.161448255411	1047.652398078289	1424.763981471931	308.127522542518	1176.566923221566	1349.095507741552	447.877549662740	1139.081333240517	1438.773226174589	630.823505665461	1087.274885075925	1490.722501444226	456.523928764025	1105.120132391662	938.953654921070	614.449030131993	1052.127208706990	961.543364328723	345.590049353699	1126.520878544469	734.541825066351	581.328729592742	1043.074049184959	631.756450787992	648.113564801899	1106.087244826724	575.243758415588	559.526612593493	1099.209348941711	486.622899259726	564.553310967954	1151.043535963362	814.908724518336	378.704426094498	1133.684522887201	686.160197906475	292.677643938572	1247.374045883813	642.242540667787	353.639443427235	1281.317273808682	561.089089051961	341.273660183410	1239.077331714317	481.249353846060	332.601539972421	1123.555820995786	389.622753204549	285.674047825511	1166.086108718112	262.894539771594	333.944155368750	1064.273754453741	400.691912943908	573.774823338702	989.267847477558	301.562088611434	637.843840081421	1019.394519067740	205.099404314270	570.480014051124	872.915881529710	45.686327180874	543.577330983761	1046.500251160813	97.607072855018	575.796312360359	957.626742687320	37.882255797586	615.190183141906	1165.726747852469	40.220348333536	600.955764324248	1019.520847995775	128.745673405551	374.606315703043	1086.509160260607	108.901975015362	291.574541273312	1181.188585881941	155.319996137125	309.372115843621	1293.975658803397	80.742015816499	277.130904598336	941.133454449650	1078.139647333506	236.242493748270	938.240228273944	817.178752909779	231.844643929554	1191.017664974205	1102.952800705401	763.337829240164	1416.624041505990	1060.663338554979	655.355425374381	
